<?xml version="1.0" encoding="UTF-8"?>
<svg id="Layer_1" xmlns="http://www.w3.org/2000/svg" viewBox="0 0 692.11 304">
  <defs>
    <style>
      .cls-1 {
        fill: #58595b;
      }

      .cls-2 {
        fill: none;
        stroke: #231f20;
        stroke-miterlimit: 10;
        stroke-width: 3px;
      }
    </style>
  </defs>
  <g>
    <path class="cls-1" d="M372.81,36.14c-1.14.44-2.27.89-3.41,1.34,6.22-.22,12.43-.43,18.65-.64-5.09-.19-10.17-.43-15.24-.7ZM33.1,42.27c-.78-5.11-1.57-10.21-2.35-15.32l.02-1.35c1.73.03,3.46.05,5.19.07.15,2,2.81,2.7,4.86,2.82,17.12.93,34.24,1.87,51.35,2.8l.04-.75c6.73.35,13.46.54,20.2.55,11.11.7,22.27.8,33.4.28,10.42.4,20.83.97,31.23,1.72,15.26,1.91,30.69,2.45,46.04,1.63,18.89.9,37.86.32,56.67-1.75-18.99-1.39-37.98-2.93-56.95-4.63v-.87c3.82.03,7.63.06,11.44.08,29.56.22,59.11.41,88.67.6,3.48.2,6.97.39,10.46.57l-.02.41c30.46,4.57,61.33,6.41,92.12,5.5l.03.91c21.77-.75,43.53-1.5,65.3-2.25v-1.02c9.96.03,19.92.05,29.89.04,33.86,4.03,68.05,5.23,102.1,3.59l.02-.39c9.34.59,18.68,1.18,28.02,1.76l1.06.39c.46,2.21.93,4.43,1.39,6.65h.2v-5.38h.51c.29,16.42,1.03,32.84,2.21,49.22l-.42.03c1.24,15.54,1.84,31.13,1.82,46.71h-.98c-.99,19.65-1,39.34-.02,58.99-.3,10.5-.59,20.99-.88,31.48-.27,3.64-.58,7.28-.93,10.91l-.45-.02c-.33,8.88-.27,17.77.16,26.64l-1.07.02-620.58,9.22c-.54-4.41-.98-8.84-1.31-13.28-.19-2.44-.35-4.89-.46-7.34-.31-5.69-.44-11.39-.41-17.09.02-1.98,1.23-4.61,2.7-4.99,1.54-22.11,1.94-44.29,1.2-66.45l.9-.03c-.02-1.25-.04-2.5-.05-3.75h.11c-.21-18.32.48-36.66,2.08-54.92l.22-.05c-2.18-17.16-3.24-34.46-3.16-51.74-.52-3.41-1.05-6.81-1.57-10.22Z"/>
    <path class="cls-1" d="M32.07,272.14l-1.2.02-.03-2.16c.16.82.6,1.59,1.23,2.14Z"/>
  </g>
  <g>
    <path class="cls-2" d="M28.85,25.58c.64.01,1.28.02,1.92.02,1.73.03,3.46.05,5.19.07,6.96.09,13.91.17,20.87.25,40.62.49,81.27.88,121.95,1.21,1.9.02,3.8.03,5.7.05,12.77.1,25.55.2,38.33.29,3.81.03,7.62.06,11.43.08,29.56.22,59.11.41,88.67.6,29.69.19,59.37.38,89.05.58,8.35.06,16.71.12,25.06.18,25.04.17,50.08.36,75.1.57,35.41.29,70.79.63,106.14,1.03,11.74.14,23.48.28,35.22.43"/>
    <path class="cls-2" d="M30.75,26.95c.78,5.11,1.57,10.21,2.35,15.32.52,3.41,1.05,6.81,1.57,10.22,1.29,8.39,2.57,16.77,3.86,25.16"/>
    <path class="cls-2" d="M34.78,44.27c-.07,2.74-.11,5.48-.11,8.22-.08,17.28.98,34.58,3.16,51.74"/>
    <path class="cls-2" d="M33.04,38.94l.06,3.33c.46,25.56.92,51.12,1.39,76.67"/>
    <path class="cls-2" d="M31.49,49.56c1.63,28.43,2.3,56.91,2.02,85.38"/>
    <path class="cls-2" d="M34.3,81.59l.54,37.35c.19,13.42.38,26.84.58,40.26.01,1.25.03,2.5.05,3.75"/>
    <path class="cls-2" d="M37.61,104.28c-1.6,18.26-2.29,36.6-2.08,54.92.17,15.03.96,30.06,2.35,45.03"/>
    <path class="cls-2" d="M33.6,142.93c.43,6.68.75,13.36.97,20.05.74,22.16.34,44.34-1.2,66.45-.09,1.38-.19,2.76-.29,4.14"/>
    <path class="cls-2" d="M35.66,204.33c1.59,12.06,2.04,24.26,1.35,36.41-.19,3.4-.47,6.81-.84,10.2"/>
    <path class="cls-2" d="M35.84,220.29c.39,6.81.78,13.63,1.17,20.45.19,3.4.39,6.79.58,10.19"/>
    <path class="cls-2" d="M651.89,37.66c.46,2.21.93,4.43,1.39,6.65"/>
    <path class="cls-2" d="M653.48,33.6v34.67"/>
    <path class="cls-2" d="M653.99,38.93c.29,16.42,1.03,32.84,2.21,49.22.71,9.83,1.58,19.65,2.61,29.45"/>
    <path class="cls-2" d="M654.43,73.64c.51,4.84.96,9.69,1.35,14.54,1.24,15.54,1.84,31.13,1.82,46.71,0,2.24-.02,4.47-.05,6.71"/>
    <path class="cls-2" d="M656.36,114.95c-1.54,20.84-2.04,41.76-1.5,62.65"/>
    <path class="cls-2" d="M656.62,134.89c-.99,19.65-1,39.34-.02,58.99.11,2.44.25,4.87.41,7.31.05,1.03.12,2.07.19,3.1"/>
    <path class="cls-2" d="M656.91,164.29c.45,12.29.48,24.6.1,36.9-.24,8.06-.67,16.12-1.29,24.17-.27,3.64-.58,7.28-.93,10.91"/>
    <path class="cls-2" d="M656.68,190.91c-.03.99-.06,1.98-.08,2.97-.3,10.5-.59,20.99-.88,31.48-.23,8.08-.45,16.17-.68,24.25"/>
    <path class="cls-2" d="M655.32,220.2c-.47,5.34-.8,10.69-.98,16.05-.33,8.88-.27,17.77.16,26.64"/>
    <path class="cls-2" d="M653.34,249.64c.82,2.68.47,5.7-.96,8.11"/>
    <path class="cls-2" d="M34.76,229.79c-.47-.38-.94-.48-1.39-.36-1.47.38-2.68,3.01-2.7,4.99-.03,5.7.1,11.4.41,17.09.11,2.45.27,4.9.46,7.34.33,4.44.77,8.87,1.31,13.28.01.06.01.11.02.17"/>
    <path class="cls-2" d="M35.27,230.7c-1.86,6.83-3.26,13.79-4.19,20.81-.63,4.68-1.05,9.39-1.26,14.11"/>
    <path class="cls-2" d="M35.95,25.53s0,.1.01.14c.15,2,2.81,2.7,4.86,2.82,17.12.93,34.24,1.87,51.35,2.8l13.2.72"/>
    <path class="cls-2" d="M51.86,23.33c1.56,1.07,3.23,1.92,4.97,2.59,4.52,1.79,9.55,2.45,14.44,2.97,6.96.74,13.95,1.28,20.94,1.65,6.73.35,13.46.54,20.2.55,4.8.01,9.6-.07,14.4-.23"/>
    <path class="cls-2" d="M81.39,27.47c10.27,1.74,20.62,2.95,31.02,3.62,11.11.7,22.27.8,33.4.28,4.72-.22,9.44-.56,14.14-1,6.3-.59,12.57-1.38,18.82-2.37"/>
    <path class="cls-2" d="M120.15,30.72c2.22.03,4.44.06,6.66.11,6.33.11,12.67.3,19,.54,10.42.4,20.83.97,31.23,1.72,4.14.28,8.27.6,12.4.95"/>
    <path class="cls-2" d="M153.32,28.99c2.2.49,4.41.95,6.63,1.38,5.66,1.1,11.36,2.01,17.09,2.72,15.26,1.91,30.69,2.45,46.04,1.63,4.37-.24,8.72-.59,13.07-1.05"/>
    <path class="cls-2" d="M178.74,25.25c1.5.11,2.99.22,4.49.31,16.98,1.18,33.99,1.84,51.01,1.99,11.3.11,22.61-.01,33.91-.35"/>
    <path class="cls-2" d="M182.64,24.47c.18.38.38.74.59,1.09.37.59.79,1.13,1.25,1.62,3.56,3.81,9.72,5.05,15.16,5.67,7.79.88,15.61,1.5,23.44,1.87,18.89.9,37.86.32,56.67-1.75.11-.01.23-.02.34-.03"/>
    <path class="cls-2" d="M222.8,28.34c18.97,1.7,37.96,3.24,56.95,4.63,19.22,1.41,38.46,2.65,57.7,3.74"/>
    <path class="cls-2" d="M270.77,24.76c17.37,1.29,34.75,2.43,52.14,3.39,3.48.2,6.97.39,10.46.57,15.14.79,30.29,1.46,45.45,2.01"/>
    <path class="cls-2" d="M333.35,29.13c30.46,4.57,61.33,6.41,92.12,5.5"/>
    <path class="cls-2" d="M308.32,30.48s.03,0,.05,0c21.41,2.61,42.9,4.49,64.44,5.65,5.07.27,10.15.51,15.24.7,20.9.79,41.83.89,62.75.31"/>
    <path class="cls-2" d="M376.08,34.85c-1.09.43-2.18.85-3.27,1.29-1.14.44-2.27.89-3.41,1.34,6.22-.22,12.43-.43,18.65-.64,12.48-.44,24.97-.87,37.45-1.3,21.77-.75,43.53-1.5,65.3-2.25"/>
    <path class="cls-2" d="M412.08,27.42c-.3.46-.32.91-.12,1.31.49,1.11,2.48,1.9,4,1.92,7.65.07,15.3.14,22.95.18,23.71.17,47.42.21,71.13.12,5.14-.01,10.29-.03,15.44-.06"/>
    <path class="cls-2" d="M441.56,25.81c-1.61.7-3.22,1.4-4.83,2.09.05.37.15.7.29,1.01.37.83,1.04,1.46,1.89,1.92,1.64.92,3.94,1.22,5.89,1.23,15.33.11,30.66.18,46,.21,9.96.03,19.92.05,29.89.04,13.6,0,27.19-.02,40.79-.08"/>
    <path class="cls-2" d="M512.12,29.61c-1.22.38-2.44.76-3.66,1.13.53.07,1.05.15,1.58.21,3.55.49,7.1.95,10.65,1.36,33.86,4.03,68.05,5.23,102.1,3.59"/>
    <path class="cls-2" d="M566.74,32c18.69,1.17,37.38,2.35,56.07,3.51,9.34.59,18.68,1.18,28.02,1.76"/>
    <path class="cls-2" d="M619.39,29.79c.01-.79-1.49-.21-1.23.54.02.06.05.12.1.18.34.59,1.2.74,1.92.79,11.1.72,22.21,1.44,33.31,2.16,4.46.29,8.91.58,13.37.87"/>
    <path class="cls-2" d="M655.65,255.08c-.74,4.49-1.27,9.02-1.58,13.57"/>
    <path class="cls-2" d="M654.02,258.82c-.2,1.36-.4,2.73-.59,4.09-.28,2.03-.55,4.07-.81,6.1"/>
    <path class="cls-2" d="M33.47,260.31c.25-1-1.07-1.88-1.93-1.46-.1.04-.2.1-.28.18-.6,4.37-1.1,8.75-1.52,13.14-.27,2.84-.5,5.67-.7,8.51"/>
    <path class="cls-2" d="M30.84,270l.03,2.16c.02,2.76.01,5.53-.04,8.29"/>
    <path class="cls-2" d="M30.84,270c-.09-.46-.1-.94-.02-1.4.01.47.02.94.02,1.4Z"/>
    <path class="cls-2" d="M32.17,272.23s-.07-.06-.1-.09c-.63-.55-1.07-1.32-1.23-2.14"/>
    <polyline class="cls-2" points="25.89 272.23 29.74 272.17 30.87 272.16 32.07 272.14 32.85 272.13 653.43 262.91 654.5 262.89"/>
  </g>
</svg>