<?xml version="1.0" encoding="UTF-8"?>
<svg id="Layer_1" xmlns="http://www.w3.org/2000/svg" viewBox="0 0 666.67 1089.81">
  <defs>
    <style>
      .cls-1 {
        fill: #58595b;
      }

      .cls-2 {
        fill: none;
        stroke: #231f20;
        stroke-miterlimit: 10;
        stroke-width: 3px;
      }
    </style>
  </defs>
  <path class="cls-1" d="M370.77,1016.07c-.94-.86-2.33-1.22-3.56-.85,1.18.3,2.37.58,3.56.85ZM102.23,534.95c1.1-3.5,1.51-7.21,1.23-10.87-.64.21-1.22.5-1.74.85.14,3.34.31,6.68.51,10.02ZM105.89,180.39c.42-4.47.83-8.94,1.25-13.41-.31.34-.59.69-.84,1.06-.13,4.12-.27,8.24-.41,12.35ZM98.36,545.59h.08c.09,3.94.41,7.85.97,11.74.37-6.75.63-13.5.77-20.26-.08-1.78-.15-3.55-.23-5.32-.67,4.6-1.2,9.21-1.59,13.84ZM32.19,956.4c.92-16.6,2.25-33.17,3.97-49.71-.05-.93-.09-1.85-.13-2.78-.15-3.36-.31-6.71-.47-10.07l-.06-1.38c-.36,3.25-.69,6.51-.99,9.77l-1.55-.14c.4-7.05.79-14.1,1.19-21.14l1.31-.2c9.86,2.15,19.8,3.86,29.8,5.15.46.1.92.21,1.38.32l.03-.14.2-.85c-3.48-1.02-6.95-2.11-10.38-3.28l.03-.23c10.46,1.74,21.19,1.86,31.69.34,1.76.14,3.51.29,5.27.43l1.4-.4c-.28-.97-.54-1.94-.78-2.91-2.96-11.92-3.5-24.44-1.57-36.57h1c.2-23.41.4-46.84.6-70.27h-.54c-.41-48.77.76-97.56,3.52-146.25-.51-28.62-.6-57.24-.28-85.86.29-3.05.61-6.11.95-9.15,0-.01.01-.02.01-.02.52-1.9,1.32-3.62,2.52-4.92.07-18.22-.66-36.44-2.2-54.59.02-6.56.05-13.12.08-19.68.11-24.16.21-48.31.32-72.47h-1c-.03-.58-.06-1.17-.09-1.75-.11-2.27-.22-4.53-.31-6.8.28-25.11.56-50.22.84-75.33v-.05c.31-4.76.66-9.52,1.06-14.28.02-.27.04-.54.07-.81-.04.18-.08.35-.1.52-1.97-16.5-2.24-33.2-.79-49.75.22-2.49.53-5.12,2.11-7.05h.55c-.32-33.7.11-67.41,1.31-101.1l.64-.02c-.34-10.99-.69-21.99-1.03-32.98-.37-11.69-.73-23.37-1.1-35.06l2.9-.08,492.75-13.04v19.95h-.27c-1.36.86-1.45,3.02-.42,4.17-.19,6.11-.39,12.21-.58,18.32-.05,1.53-.1,3.05-.15,4.58-.51,7.64-1.19,15.26-2.04,22.87h-.03c-.01,10.77.1,21.53.32,32.29.09,4.29.19,8.57.32,12.85-.04-.08-.09-.15-.13-.22-1.36,18.66-2.53,37.34-3.51,56.03-.39-18.95-.43-37.91-.13-56.87-2.56,30.77-3.07,61.71-1.53,92.55-.29,7.05-.55,14.11-.78,21.17h-.37c.18,4.79.4,9.57.66,14.35-2.65,23.94-4.05,48.02-.71,71.66.49,15.28,1.57,30.55,3.27,45.75l-1.07.12c-.14-1.4-1.08-2.69-2.34-3.31-.37-.19-.77-.32-1.18-.38-.73,7.36-.55,14.78-.36,22.17.14,5.32.27,10.65.41,15.97.45,17.8.9,35.59,1.35,53.38l-.53.24c-.51-1.15-1.12-2.26-1.83-3.3-.06,1.09-.12,2.18-.16,3.27-.62,13.06-.52,26.16.27,39.2-.68,23.53-1.36,47.05-2.05,70.57-.07-.71-.12-1.43-.17-2.15-.19-8.79-.37-17.57-.56-26.36-.28,8.79-.1,17.59.56,26.36.03,1.53.06,3.06.1,4.59.4,18.87.8,37.74,1.2,56.61l2.5-.02c.13,17.19.26,34.38.38,51.57-.2-1-.39-1.99-.59-2.99.29,8.09.57,16.19.86,24.28-.03,10.18.32,20.36,1.07,30.51.25,7.17.51,14.34.76,21.51.28,7.87.55,15.75.83,23.62-.86,6.56-.8,13.2-.74,19.81l.06,6.48-.96,23.19c-.59.3-.69,1.37-.07,1.68.02-.56.04-1.12.07-1.68.07-.04.16-.07.25-.08.49-.05.86.39.94.85v.02c0,.1,0,.2.01.3.1,10.47.2,20.94.3,31.41h.87c0,5.17.36,10.35,1.09,15.47,3.6.67,7.21,1.33,10.81,1.99l2.16-.24c3.32.59,6.68.98,10.05,1.19,5.55.96,11.26.92,16.78-.12,1.11-.2,2.2-.45,3.29-.75l.28,1.01c.05,1.88.09,3.76.13,5.64h-.21c.04,16.26.08,32.52.11,48.79,0-.05,0-.11-.01-.17-.11-2.24-.25-4.48-.42-6.72-.39-5.24-.91-10.46-1.57-15.67-.09,2.54-.18,5.08-.26,7.62l-.61.13c-3.77,18.06-3.63,36.93.4,54.94l.71.05c.23-3.29.4-6.58.51-9.88l.86.03c-.11,3.22-.24,6.43-.39,9.64l.57.02c-.27,7.47-.54,14.93-.81,22.4-12.8.87-25.59,1.75-38.38,2.62l-.03.83c-6.55-.28-13.09-.83-19.59-1.65-9.87,1.14-19.91.75-29.65-1.14l-.1.48c-3.27-.04-6.53-.08-9.8-.12v-.21c-20.85-.85-41.7-1.7-62.55-2.55-.97-.04-2.08-.16-2.63-.96-.13-.19-.18-.43-.15-.66-10.2-.46-20.39-.92-30.59-1.38-2.1-.09-4.23-.2-6.32-.46-3.92.53-7.84.93-11.78,1.2-14.7.99-29.52.17-44-2.47l-.07.4c1.26.28,2.53.56,3.79.84l-.45,2.05c-1.35.79-3.02.68-4.57.53-8.71-.88-17.46-2.74-26.13-1.6h0c-7.67,1.48-15.47,2.37-23.29,2.63-.09,0-.18,0-.26-.03l-.22.98c.25,0,.49.17.66.42.23.32.33.78.11,1.13-.45.74-1.45.87-2.31.92-3.44.19-6.89.14-10.32-.14-4.64-.37-9.25-1.17-13.74-2.37l-.52,1.94c-5.06-.97-10.12-1.93-15.17-2.89l-.34,1.78c-3.76.09-7.51.18-11.27.27l-.07.25c-1.11-.3-2.21-.62-3.3-.96-2.2.6-4.42,1.19-6.62,1.8l-.02.38c-6.74-.32-13.46-.96-20.14-1.92-2.14.11-4.29.16-6.43.15v.02c-13.12,3.47-27.21,3.19-40.19-.79l-.38,1.26c-.05.01-.09.01-.14.02-.51.08-1.03.16-1.54.22-12.17,1.74-24.58,1.86-36.79.35v-.75c-4.6,0-9.21-.21-13.79-.63,4.64.02,9.28.04,13.92.06-10.56-.91-21.13-1.83-31.7-2.75,5.85,1.24,11.77,2.14,17.72,2.68-9.73-.04-19.46-.09-29.18-.13v.2c-1.13.04-2.25.09-3.38.15v.09c-5.65-.37-11.28-.74-16.92-1.12l-.04.24c-7.01-1.23-14.2-1.4-21.26-.54l-.15-1.22c-5.44.61-10.95.53-16.37-.23-6.91.11-13.82.22-20.72.33.69-.87,1.75-1.41,2.85-1.53v-.04c-3.93.38-7.94-.04-11.69-1.26l.77-2.5.69-8.49.83.07c.88-1.69,1.35-3.59,1.38-5.5v-.19c0-9.74.28-19.49.84-29.23v-.08c.22-4.01.5-8.02.82-12.03.04-.54.14-1.12.31-1.68.24-.8.62-1.53,1.16-1.97-.12,1.87-.16,3.75-.13,5.63.1-1.96.27-3.91.51-5.85-.13.06-.26.13-.37.22.26-4.08.9-8.13,1.91-12.09-.76-14.19-.17-28.45,1.75-42.53.55-3.02,1.15-6.03,1.82-9.03.01-.83.03-1.66.04-2.49-.72,3.82-1.34,7.66-1.86,11.52-2.34,12.61-3.83,25.37-4.47,38.17-.53,5.71-.92,11.42-1.16,17.14l-.84,3.81c.09-1.76.19-3.53.3-5.3Z"/>
  <g>
    <path class="cls-2" d="M40.1,897.7c.03-1.38.05-2.76.08-4.15.01-.83.03-1.66.04-2.49-.72,3.82-1.34,7.66-1.86,11.52-1.92,14.08-2.51,28.34-1.75,42.53.08,1.64.19,3.27.31,4.9"/>
    <path class="cls-2" d="M40.47,892.18c-.1.46-.2.91-.29,1.37-.67,3-1.27,6.01-1.82,9.03-2.34,12.61-3.83,25.37-4.47,38.17-.24,4.51-.36,9.03-.37,13.55,0,1.62,0,3.24.01,4.87.02,1.16.04,2.33.07,3.5"/>
    <path class="cls-2" d="M31.89,961.73c-.06,1.22-.13,2.44-.17,3.65-.1,1.89-.19,3.77-.27,5.66"/>
    <path class="cls-2" d="M37.6,904.79l-.69-5.25c-.26,2.38-.52,4.77-.75,7.15-1.72,16.54-3.05,33.11-3.97,49.71-.11,1.77-.21,3.54-.3,5.3"/>
    <path class="cls-2" d="M34.56,962.86c-.23,4.62-.06,9.26.52,13.85"/>
    <path class="cls-2" d="M35.48,954.1c-.15.96-.29,1.92-.41,2.88-.24,1.94-.41,3.89-.51,5.85"/>
    <path class="cls-2" d="M34.69,957.2c-.12,1.87-.16,3.75-.13,5.63v.03c.03,1.33.11,2.66.21,4"/>
    <path class="cls-2" d="M38.15,939.96c-.58,1.69-1.1,3.41-1.54,5.15-1.01,3.96-1.65,8.01-1.91,12.09"/>
    <path class="cls-2" d="M33.23,975.33c-.28,3.81-.56,7.63-.84,11.45-.06.89-.13,1.77-.19,2.66"/>
    <path class="cls-2" d="M31.56,1002.38c0,1.79.01,3.57.03,5.36"/>
    <path class="cls-2" d="M32.4,972.96c-.56,9.74-.84,19.49-.84,29.23"/>
    <path class="cls-2" d="M35.99,956.83c-.34-.04-.65.02-.92.15-.13.06-.26.13-.37.22,0,0,0,0,0,0-.54.44-.92,1.17-1.16,1.97-.17.56-.27,1.14-.31,1.68-.32,4.01-.6,8.02-.82,12.03"/>
    <path class="cls-2" d="M32.29,982.42c.03,1.45.07,2.91.1,4.36.06,2.3.11,4.6.17,6.91"/>
    <path class="cls-2" d="M34.15,880.95c-.4,7.04-.79,14.09-1.19,21.14"/>
    <path class="cls-2" d="M36.42,883.65c-.28,3.39-.57,6.79-.86,10.19-.38,4.61-.77,9.22-1.16,13.83"/>
    <path class="cls-2" d="M36.19,902.05c-.05.62-.11,1.24-.16,1.86-.78,8.78-1.54,17.56-2.31,26.34"/>
    <path class="cls-2" d="M37.05,911.78c-.71,6.14-1.43,12.27-2.14,18.4"/>
    <path class="cls-2" d="M32.52,933.12c-.07.36-.14.73-.2,1.09-.92,4.96-1.84,9.91-2.75,14.87-.16.87-.26,1.93.44,2.48.54.42,1.43-.21,1.43-.72,0-.15-.07-.28-.24-.38"/>
    <path class="cls-2" d="M32.93,952.81c-.3,1.18-.55,2.38-.74,3.59-.23,1.4-.39,2.82-.47,4.24-.09,1.58-.1,3.16,0,4.74.04.87.12,1.73.22,2.6,0,.12.02.24.04.36"/>
    <path class="cls-2" d="M31.85,964.12c.03,1.29.06,2.58.09,3.86,0,.12,0,.24,0,.36"/>
    <path class="cls-2" d="M36.2,907.66c0-.32-.03-.65-.04-.97-.05-.93-.09-1.85-.13-2.78-.15-3.36-.31-6.71-.47-10.07l-.06-1.38c-.36,3.25-.69,6.51-.99,9.77-1,10.64-1.73,21.31-2.19,31.98-.24,5.55-.41,11.09-.5,16.64-.06,3.27-.09,6.53-.1,9.79v1.86c.06-.26.11-.51.17-.77v-.03l.84-3.81c.26-1.2.52-2.39.79-3.59.21-.98.42-1.95.64-2.93"/>
    <path class="cls-2" d="M34.85,931.58c-.36,3.05-.68,6.11-.96,9.17-.53,5.71-.92,11.42-1.16,17.14-.22,5-.33,9.99-.33,14.99v.08c0,3.15.04,6.31.13,9.46"/>
    <path class="cls-2" d="M34.16,966.82c-.92,12.22-1.42,24.47-1.47,36.72"/>
    <path class="cls-2" d="M31.23,999.37c.22.92.33,1.87.33,2.82v.19c-.03,1.91-.5,3.81-1.38,5.5"/>
    <path class="cls-2" d="M30.73,990.88c-.46,5.64-.92,11.29-1.38,16.93l-.69,8.49"/>
    <path class="cls-2" d="M27.69,1018.74c.07.02.13.04.2.06,3.75,1.22,7.76,1.64,11.69,1.26,1.68-.15,3.35-.45,4.97-.9"/>
    <path class="cls-2" d="M41.59,1020.38c-.64-.27-1.33-.35-2.01-.28-1.1.12-2.16.66-2.85,1.53,6.9-.11,13.81-.22,20.72-.33.85,0,1.7-.03,2.55-.04"/>
    <path class="cls-2" d="M47.16,1019c3.36,1.05,6.8,1.82,10.29,2.3,5.42.76,10.93.84,16.37.23,2.43-.27,4.83-.69,7.21-1.23"/>
    <path class="cls-2" d="M67.12,1023.91c2.26-.5,4.55-.89,6.85-1.16,7.06-.86,14.25-.69,21.26.54.46.08.91.16,1.37.25"/>
    <path class="cls-2" d="M95.27,1023.05c5.64.38,11.27.75,16.91,1.12.94.06,1.88.13,2.82.19"/>
    <path class="cls-2" d="M112.19,1024.08c1.13-.06,2.25-.11,3.38-.15"/>
    <path class="cls-2" d="M144.81,1023.87c4.58.42,9.19.63,13.79.63h.36"/>
    <path class="cls-2" d="M113.57,1023.72c.67,0,1.33.01,2,.01,9.72.04,19.45.09,29.18.13.02.01.04.01.06.01,4.64.02,9.28.04,13.92.06-10.56-.91-21.13-1.83-31.7-2.75,5.85,1.24,11.77,2.14,17.72,2.68"/>
    <path class="cls-2" d="M158.6,1025.25c12.21,1.51,24.62,1.39,36.79-.35.51-.06,1.03-.14,1.54-.22.05-.01.09-.01.14-.02"/>
    <path class="cls-2" d="M178.37,1022.63c6.19.68,12.37,1.36,18.56,2.05"/>
    <path class="cls-2" d="M192.36,1024.38c1.01.18,2.02.35,3.03.52l1.68.27"/>
    <path class="cls-2" d="M195.56,1022.8c.63.21,1.26.41,1.89.6,12.98,3.98,27.07,4.26,40.19.79"/>
    <path class="cls-2" d="M231.95,1023.99c1.89.11,3.79.17,5.69.18,2.14.01,4.29-.04,6.43-.15,5.38-.27,10.73-.93,16.02-1.95"/>
    <path class="cls-2" d="M237.47,1022.98c2.19.38,4.4.73,6.6,1.04,6.68.96,13.4,1.6,20.14,1.92,1.47.07,2.94.13,4.41.17"/>
    <path class="cls-2" d="M274.22,1024.47c3.76-.09,7.51-.18,11.27-.27"/>
    <path class="cls-2" d="M271.14,1019.62c4.9.93,9.79,1.87,14.69,2.8,5.05.96,10.11,1.92,15.17,2.89"/>
    <path class="cls-2" d="M269.87,1023.46c.33.1.65.21.98.3,1.09.34,2.19.66,3.3.96,13.33,3.58,27.44,4.27,41.04,1.96"/>
    <path class="cls-2" d="M300.72,1023.15c.27.07.53.15.8.22,4.49,1.2,9.1,2,13.74,2.37,3.43.28,6.88.33,10.32.14.86-.05,1.86-.18,2.31-.92.22-.35.12-.81-.11-1.13-.17-.25-.41-.42-.66-.42-.13,0-.25.04-.37.14"/>
    <path class="cls-2" d="M323.54,1023.11c1.41.28,2.82.52,4.24.72,7.91,1.11,15.99.94,23.84-.53.52-.09,1.03-.19,1.55-.3"/>
    <path class="cls-2" d="M350.2,1023.11c.47.06.95.13,1.42.19,3.81.51,7.61,1.01,11.42,1.52"/>
    <path class="cls-2" d="M358.62,1017.98c.12.01.23.02.35.03,6.04.42,12.05,1.39,17.93,2.89"/>
    <path class="cls-2" d="M378.25,1018.01c1.26.28,2.53.56,3.79.84,2.07.46,4.14.92,6.22,1.38"/>
    <path class="cls-2" d="M360.12,1024.22c13.13,1,26.35.97,39.48-.09"/>
    <path class="cls-2" d="M370.77,1016.07c2.5.57,5.02,1.09,7.55,1.54,14.48,2.64,29.3,3.46,44,2.47,3.94-.27,7.86-.67,11.78-1.2,2.62-.36,5.23-.77,7.84-1.25"/>
    <path class="cls-2" d="M370.77,1016.07c-.94-.86-2.33-1.22-3.56-.85,1.18.3,2.37.58,3.56.85Z"/>
    <path class="cls-2" d="M371.21,1016.54c-.13-.17-.28-.33-.44-.47"/>
    <path class="cls-2" d="M421.94,1020.01c.13.02.25.05.38.07,13.85,2.53,28,3.39,42.06,2.57"/>
    <path class="cls-2" d="M427.25,1017.17c2.18.92,4.5,1.42,6.85,1.71,2.09.26,4.22.37,6.32.46,10.2.46,20.39.92,30.59,1.38,9.08.41,18.16.82,27.24,1.23"/>
    <path class="cls-2" d="M495.42,1024.58c13.64.18,27.29.35,40.92.52,3.27.04,6.53.08,9.8.12"/>
    <path class="cls-2" d="M472.34,1019.71c-.6-.42-1.28.29-1.33,1.01-.03.23.02.47.15.66.55.8,1.66.92,2.63.96,20.85.85,41.7,1.7,62.55,2.55"/>
    <path class="cls-2" d="M538.84,1023.01c2.44.67,4.91,1.25,7.4,1.73,9.74,1.89,19.78,2.28,29.65,1.14,1.82-.2,3.63-.46,5.43-.77"/>
    <path class="cls-2" d="M561.51,1023.63c4.77.9,9.56,1.65,14.38,2.25,6.5.82,13.04,1.37,19.59,1.65,7.99.35,16,.29,23.98-.18"/>
    <path class="cls-2" d="M595.51,1026.7c12.79-.87,25.58-1.75,38.38-2.62,1.26-.09,2.53-.17,3.79-.26"/>
    <path class="cls-2" d="M634.72,1001.2c-.01.16-.01.32-.02.48-.27,7.47-.54,14.93-.81,22.4-.04.99-.07,1.99-.11,2.98"/>
    <path class="cls-2" d="M635.81,1002.6c-.02,5.31.09,10.63.31,15.94"/>
    <path class="cls-2" d="M637.97,928.16c1.33-1.88,1.34-4.59.02-6.48.05,1.27.1,2.55.14,3.82"/>
    <path class="cls-2" d="M634.91,962.54c.01,2.31.01,4.62.02,6.93.01,6.5.03,13,.04,19.5"/>
    <path class="cls-2" d="M634.91,961.71v.76"/>
    <path class="cls-2" d="M634.8,912.9c.04,16.26.08,32.52.11,48.79"/>
    <path class="cls-2" d="M635.03,964.2c.26,6.38.32,12.76.18,19.13"/>
    <path class="cls-2" d="M632.62,936.92c.1.74.2,1.47.29,2.21.66,5.21,1.18,10.43,1.57,15.67.17,2.24.31,4.48.42,6.72.01.06.01.12.01.17v.02c.04.83.08,1.65.12,2.47"/>
    <path class="cls-2" d="M633.57,967.88c.34,8.03.37,16.07.09,24.11-.11,3.3-.28,6.59-.51,9.88-.17,2.75-.39,5.49-.65,8.23"/>
    <path class="cls-2" d="M632.04,946.88c-3.77,18.06-3.63,36.93.4,54.94"/>
    <path class="cls-2" d="M634.91,962.54c.01,2.31.02,4.62.02,6.93-.02,7.52-.15,15.04-.41,22.55-.11,3.22-.24,6.43-.39,9.64"/>
    <path class="cls-2" d="M633.98,931.24c.52,10.09.83,20.18.92,30.28,0,.32.01.63.01.95"/>
    <path class="cls-2" d="M634.03,925.61c-.18,9.73-.03,19.47.45,29.19.11,2.56.26,5.12.43,7.67v.07c.04.55.08,1.1.12,1.64v.02c.38,5.44.86,10.88,1.44,16.3"/>
    <path class="cls-2" d="M632.59,925.61c-.65-2.24-.28-4.76,1-6.72-.23,6.75-.46,13.49-.68,20.24-.09,2.54-.18,5.08-.26,7.62"/>
    <path class="cls-2" d="M634.88,907.26c.05,1.88.09,3.76.13,5.64.03,1.41.07,2.82.1,4.22"/>
    <path class="cls-2" d="M637.82,912.83c-1.3,9.8-1.51,19.75-.61,29.59"/>
    <path class="cls-2" d="M35.46,880.75c9.86,2.15,19.8,3.86,29.8,5.15l1.41.18c.06.01.12.01.18.02"/>
    <path class="cls-2" d="M38.37,877.07c8.7,3.67,17.7,6.63,26.89,8.83.46.1.92.21,1.38.32.25.06.5.11.75.17"/>
    <path class="cls-2" d="M56.49,881.95c3.43,1.17,6.9,2.26,10.38,3.28"/>
    <path class="cls-2" d="M54.08,879.26l8.04.66c8.7.72,17.39,1.43,26.09,2.14,1.76.14,3.51.29,5.27.43"/>
    <path class="cls-2" d="M53.98,881.26c.85.16,1.69.32,2.54.46,10.46,1.74,21.19,1.86,31.69.34.35-.05.69-.1,1.03-.15"/>
    <path class="cls-2" d="M58.04,878.91c1.35.37,2.71.7,4.08,1.01,5.68,1.25,11.49,1.91,17.3,1.96"/>
    <path class="cls-2" d="M56.74,875.5c4.91,2.08,10.33,2.94,15.64,2.46"/>
    <path class="cls-2" d="M68.11,877.15c8.66.68,17.32,1.35,25.99,2.03,1.21.09,2.42.19,3.63.28"/>
    <path class="cls-2" d="M600.57,906.36c.58-.06,1.17-.13,1.75-.19l2.16-.24c1.19-.13,2.38-.26,3.56-.39,1.02-.12,2.04-.23,3.05-.34,4.02-.44,8.04-.89,12.05-1.33"/>
    <path class="cls-2" d="M596.21,902.42c2.6.6,5.2,1.13,7.82,1.61,2.35.44,4.7.83,7.06,1.17,6.7.97,13.45,1.57,20.22,1.8.08,0,.16.01.24.01"/>
    <path class="cls-2" d="M607.61,902.07c-1.24.63-2.48,1.27-3.73,1.9l.15.06c1.31.57,2.65,1.07,4.01,1.51,2.12.68,4.29,1.21,6.49,1.58,5.55.96,11.26.92,16.78-.12,1.11-.2,2.2-.45,3.29-.75.37-.09.73-.19,1.1-.3"/>
    <path class="cls-2" d="M594.82,903.66c3.18.94,6.4,1.69,9.66,2.27,3.32.59,6.68.98,10.05,1.19,1.44.09,2.88.14,4.33.16"/>
    <path class="cls-2" d="M594.87,907.7c2.1.63,4.26,1.07,6.44,1.3,3.02.34,6.08.3,9.09-.12"/>
    <path class="cls-2" d="M586.48,903.26c1.68.31,3.35.62,5.03.92,3.6.67,7.21,1.33,10.81,1.99,2.69.49,5.38.99,8.07,1.48"/>
    <path class="cls-2" d="M590.59,906.35c8.29,3.92,17.77,5.29,26.84,3.87"/>
    <path class="cls-2" d="M597.73,907.56c1.16.56,2.36,1.04,3.58,1.44,4.27,1.43,8.85,1.91,13.32,1.37"/>
    <path class="cls-2" d="M94.91,737.13c-.1-7.41-.19-14.83-.29-22.25-.16,19.16-.33,38.31-.49,57.46-.2,23.43-.4,46.86-.6,70.28,0,.51-.01,1.03-.01,1.54"/>
    <path class="cls-2" d="M100.66,745.59c-3.04,35.14-4.98,70.37-5.83,105.62"/>
    <path class="cls-2" d="M92.53,842.61c-1.93,12.13-1.39,24.65,1.57,36.57.24.97.5,1.94.78,2.91.25.9.52,1.8.8,2.69"/>
    <path class="cls-2" d="M93.63,852.64c-.78,5.65-.47,11.45.92,16.98"/>
    <path class="cls-2" d="M94.91,630.09c-.15-4.12-.31-8.23-.47-12.35-1.15,17.23-1.42,34.52-.79,51.78"/>
    <path class="cls-2" d="M103.36,645.58v-9.86"/>
    <path class="cls-2" d="M102.92,636.37c-3.15,3.21-3.48,8.16-3.64,12.65-1.12,33.12-2.25,66.24-3.38,99.36"/>
    <path class="cls-2" d="M96.17,646.95c3.17-11.8,3.81-24.27,1.86-36.33-.33,5.15-.63,10.31-.92,15.47-2.76,48.69-3.93,97.48-3.52,146.25"/>
    <path class="cls-2" d="M98.44,545.6c.09,3.93.41,7.84.97,11.73.6,4.11,1.46,8.18,2.58,12.19"/>
    <path class="cls-2" d="M97.78,531.08c-.7,2.51-.91,5.32-.94,7.86,0,.43,0,.86,0,1.29-.32,28.62-.23,57.24.28,85.86.07,4.17.15,8.34.24,12.51"/>
    <path class="cls-2" d="M101.98,535.73c.09-.26.17-.52.25-.78,1.1-3.5,1.51-7.21,1.23-10.87-.64.21-1.22.5-1.74.85-.52.34-.99.75-1.41,1.21-1.2,1.3-2,3.02-2.52,4.92"/>
    <path class="cls-2" d="M98.08,528.55c-.1.84-.2,1.67-.29,2.51,0,0-.01,0-.01.02-.34,3.04-.66,6.1-.95,9.15-2.14,22.36-2.72,44.87-1.72,67.32"/>
    <path class="cls-2" d="M100.78,551.2c-.2-4.71-.4-9.42-.6-14.13-.08-1.78-.15-3.55-.23-5.32-.67,4.6-1.2,9.21-1.59,13.84-1.06,12.16-1.19,24.4-.41,36.59"/>
    <path class="cls-2" d="M101.03,489.24c-.07,11.9.15,23.8.69,35.69.14,3.34.31,6.68.51,10.02.31,5.43.7,10.85,1.14,16.27"/>
    <path class="cls-2" d="M100.38,450.66c-.94.11-1.66.55-2.19,1.21-1.33,1.64-1.53,4.61-1.29,6.96.45,4.23.85,8.47,1.21,12.72,1.54,18.15,2.27,36.37,2.2,54.59-.01,3.64-.05,7.29-.13,10.93-.14,6.76-.4,13.51-.77,20.26-.11,2.2-.24,4.39-.38,6.58"/>
    <path class="cls-2" d="M101.72,396.21c-.46,1.41-.92,2.82-1.37,4.24"/>
    <path class="cls-2" d="M98.52,377.97c0,.48,0,.95,0,1.43-.11,24.16-.21,48.31-.32,72.47-.03,6.56-.06,13.12-.08,19.68-.05,8.71-.08,17.43-.12,26.14"/>
    <path class="cls-2" d="M100.39,359.71c-.18-1.5-2.35.26-2.4,1.77-.19,5.39-.38,10.78-.57,16.17-.19,5.36-.38,10.71-.56,16.07-.76,21.51-1.52,43.02-2.27,64.53"/>
    <path class="cls-2" d="M92.27,330.11c3.07-21.45,4.42-43.14,4.03-64.81"/>
    <path class="cls-2" d="M97.95,295.52c-1.59,25.08-1.87,50.23-.84,75.33.09,2.27.2,4.53.31,6.8.03.58.06,1.17.09,1.75"/>
    <path class="cls-2" d="M100.22,268.08c-.42,4.1-.8,8.2-1.14,12.3-.03.27-.05.54-.07.81-.4,4.76-.75,9.52-1.06,14.28"/>
    <path class="cls-2" d="M100.27,286.26c1.92-3.25,2-7.51.21-10.84-.6,1.62-1.06,3.28-1.4,4.96-.04.18-.08.35-.1.52-.91,4.68-.97,9.55-1.03,14.34v.28c-.28,25.11-.56,50.22-.84,75.33-.08,7.62-.17,15.25-.25,22.87-.05,4.13-.09,8.25-.14,12.38"/>
    <path class="cls-2" d="M100.3,224.1c-1.58,1.93-1.89,4.56-2.11,7.05-1.45,16.55-1.18,33.25.79,49.75.01.1.02.19.03.29.73,6.09,1.7,12.16,2.9,18.18"/>
    <path class="cls-2" d="M103.61,204.76c.76-8.12,1.52-16.24,2.28-24.37.42-4.47.83-8.94,1.25-13.41-.31.34-.59.69-.84,1.06-2.22,3.19-2.52,7.46-2.66,11.41-1.1,30.5-.57,61.05,1.57,91.49"/>
    <path class="cls-2" d="M106.82,152.6c-.17,5.15-.34,10.3-.52,15.44-.13,4.12-.27,8.24-.41,12.35-.34,10-.67,19.99-1.01,29.98"/>
    <path class="cls-2" d="M102.16,123c-1.2,33.69-1.63,67.4-1.31,101.1.03,2.94.06,5.88.1,8.82"/>
    <path class="cls-2" d="M102.71,87.4c-.39.84-.7,1.71-.94,2.6-.84,3.03-.96,6.28-1.06,9.45-1.11,35.56-2.22,71.12-3.33,106.68"/>
    <path class="cls-2" d="M97.6,144.17c-.03,9.39.03,18.78.16,28.17"/>
    <path class="cls-2" d="M99.69,63.85c-1.33,26.73-2.03,53.5-2.09,80.26"/>
    <path class="cls-2" d="M99.6,76.54c-.67,22.52-1.34,45.05-2,67.57v.06"/>
    <path class="cls-2" d="M591.59,904.81c-.03-.21-.06-.42-.08-.63-.73-5.12-1.09-10.3-1.09-15.48,0-3.1.13-6.21.39-9.3"/>
    <path class="cls-2" d="M589.24,856.98c-.08-.46-.45-.9-.94-.85-.09.01-.18.04-.25.08-.59.3-.69,1.37-.07,1.68.01.02.02.02.04.03"/>
    <path class="cls-2" d="M588.96,857.82c.17-.13.26-.32.29-.52.02-.09.02-.19-.01-.3"/>
    <path class="cls-2" d="M590.6,794.87c-.53,12.72-1.06,25.44-1.59,38.15l-.96,23.19c-.03.56-.05,1.12-.07,1.68-.42,9.99-.83,19.97-1.25,29.96"/>
    <path class="cls-2" d="M590.9,767.77c-.61,2.97-1.07,5.97-1.42,8.99-.26,2.11-.46,4.23-.62,6.35-.44,5.75-.62,11.52-.79,17.28-.86,29.15-1.73,58.3-2.6,87.45"/>
    <path class="cls-2" d="M589.79,805.98c-.04.25-.07.5-.1.75-.86,6.56-.8,13.2-.74,19.81l.06,6.48c.08,7.99.16,15.98.23,23.96v.02c0,.1,0,.2.01.3.1,10.47.2,20.94.3,31.41.03,3.94.07,7.87.11,11.8"/>
    <path class="cls-2" d="M589.11,721.66c-.55-2.78-1.1-5.57-1.65-8.35-.23-1.17-.47-2.34-.7-3.51-.2-1-.39-1.99-.59-2.99.29,8.09.57,16.19.86,24.28.35,10.17.71,20.34,1.07,30.51.25,7.17.51,14.34.76,21.51.28,7.87.55,15.75.83,23.62.03.74.05,1.48.08,2.22"/>
    <path class="cls-2" d="M589.16,706.08c.64-1.35,1.1-2.77,1.39-4.23.49-2.53.46-5.16-.1-7.68-.29-1.29-.72-2.55-1.29-3.74-.79,7.61-1.36,15.24-1.7,22.88-.28,5.93-.42,11.85-.43,17.78-.03,10.18.32,20.36,1.07,30.51.36,5.06.83,10.12,1.38,15.16.21,1.84.42,3.67.65,5.51"/>
    <path class="cls-2" d="M589.79,641.37c.22,17.6.44,35.2.66,52.8.03,2.56.07,5.12.1,7.68.18,14.11.35,28.21.53,42.32"/>
    <path class="cls-2" d="M589.12,631.33c-2.75,2.89-2.88,7.3-2.85,11.29.04,5.2.08,10.41.11,15.61.13,17.19.26,34.38.38,51.57.04,4.89.07,9.78.11,14.67"/>
    <path class="cls-2" d="M582.58,597.05c.03,1.53.06,3.06.1,4.59.4,18.87.8,37.74,1.2,56.61"/>
    <path class="cls-2" d="M582.58,597.05c-.66-8.77-.84-17.57-.56-26.36.19,8.79.37,17.57.56,26.36Z"/>
    <path class="cls-2" d="M584.33,613.3c-.67-4.68-1.19-9.38-1.58-14.1-.07-.71-.12-1.43-.17-2.15"/>
    <path class="cls-2" d="M590.22,540.99c-1.12,1.94-1.86,4.02-2.35,6.19-.41,1.73-.65,3.51-.8,5.3-.2,2.1-.27,4.22-.32,6.31-.51,18.18-1.02,36.36-1.52,54.54-.19,6.52-.37,13.04-.55,19.56"/>
    <path class="cls-2" d="M587.48,504.61c1.14-3.7,1.21-7.71.29-11.47-.3-1.26-.72-2.5-1.25-3.68-.51-1.15-1.12-2.26-1.83-3.3-.06,1.09-.12,2.18-.16,3.27-.62,13.06-.52,26.16.27,39.2.5,7.97,1.25,15.93,2.27,23.85.27,2.15.56,4.29.88,6.43.31,2.15.65,4.3,1,6.44"/>
    <path class="cls-2" d="M590.95,462.4c-.8,10.62-1.44,21.25-1.93,31.89-.81,17.62-1.2,35.25-1.15,52.89,0,3.91.03,7.82.08,11.73.08,5.9.2,11.79.37,17.69"/>
    <path class="cls-2" d="M588.83,494.77c.13-.15.18-.32.18-.48,0-.53-.6-1.04-1.24-1.15-.3-.06-.62-.03-.89.15-.98.66-1.11,2.02-1.14,3.19-.09,3.22-.19,6.43-.28,9.65-.22,7.5-.44,15-.66,22.5-.68,23.53-1.36,47.05-2.05,70.57-.02.81-.05,1.63-.07,2.44-.02.54-.03,1.09-.05,1.63"/>
    <path class="cls-2" d="M587.16,389.22c-.11,2.95-.22,5.91-.33,8.86-.45,12.58-.83,25.17-1.13,37.76-.36,14.04-.62,28.09-.79,42.14"/>
    <path class="cls-2" d="M589.19,401.87c0-.16,0-.32-.02-.48-.14-1.4-1.08-2.69-2.34-3.31-.37-.19-.77-.32-1.18-.38-.73,7.36-.55,14.78-.36,22.17.14,5.32.27,10.65.41,15.97.45,17.8.9,35.59,1.35,53.38"/>
    <path class="cls-2" d="M583.71,418.09c-.02,1.19-.04,2.37-.06,3.55-.37,22.6-.08,45.21.88,67.79.23,5.57.5,11.14.82,16.7"/>
    <path class="cls-2" d="M586.76,347.01c.05,2.84.12,5.67.21,8.51.49,15.28,1.57,30.55,3.27,45.75.23,2.2.49,4.41.76,6.61.62,5.09,1.31,10.16,2.06,15.23"/>
    <path class="cls-2" d="M595.41,297.63c-1.72,24.86-2.52,49.79-2.39,74.7.06,11.75.33,23.48.8,35.21"/>
    <path class="cls-2" d="M594.83,254.02c-6.76,36.63-8.43,74.21-4.94,111.3.21,2.34.45,4.69.71,7.03"/>
    <path class="cls-2" d="M590.69,268.12c.03-3.17.07-6.34.1-9.51-1.09,8.38-2.18,16.81-3.11,25.25-2.65,23.94-4.05,48.02-.71,71.66.47,3.31,1.03,6.62,1.7,9.91"/>
    <path class="cls-2" d="M587.03,180.76c-1.18,29.57-1.19,59.19-.01,88.76.18,4.78.4,9.56.66,14.34.04.86.08,1.71.13,2.57"/>
    <path class="cls-2" d="M594.76,166.66c.93-3.26.44-6.9-1.29-9.81-.04-.08-.09-.15-.13-.22-1.36,18.66-2.53,37.34-3.51,56.03-.63,11.89-1.19,23.78-1.66,35.68-.29,7.05-.55,14.11-.78,21.17"/>
    <path class="cls-2" d="M591.06,141.25c-.51,4.84-.96,9.69-1.36,14.54-2.56,30.77-3.07,61.71-1.53,92.55.23,4.72.52,9.44.85,14.16"/>
    <path class="cls-2" d="M591.65,97.67c-1,19.36-1.66,38.74-1.95,58.12-.3,18.96-.26,37.92.13,56.87.03,2.06.08,4.12.13,6.18"/>
    <path class="cls-2" d="M593,89.24c-.11,7.49-.17,14.98-.17,22.47-.01,10.77.1,21.53.32,32.29.09,4.29.19,8.57.32,12.85.18,6.59.41,13.17.68,19.75"/>
    <path class="cls-2" d="M596.32,72.34l-.09-1.47c-.09-1.51-.18-3.01-.28-4.52,0-.04-.01-.09-.01-.13l-.21-3.36c-.03,1.03-.07,2.05-.1,3.08-.19,6.11-.39,12.21-.58,18.32-.05,1.53-.1,3.05-.15,4.58-.58,18.39-1.16,36.77-1.75,55.16-.21,6.62-.42,13.24-.63,19.86"/>
    <path class="cls-2" d="M596.37,66.49c-.15-.07-.29-.15-.42-.26h-.01c-.12-.08-.22-.18-.31-.29-1.03-1.15-.94-3.31.42-4.17-.02,1.49-.05,2.98-.1,4.46.01.04.01.08,0,.12-.11,4.48-.28,8.95-.5,13.42-.15,3.02-.33,6.05-.55,9.07-.51,7.64-1.19,15.26-2.04,22.87"/>
    <path class="cls-2" d="M596.85,63.81c-.21,2.35-.42,4.71-.62,7.06-.27,2.97-.53,5.93-.78,8.9-.14,1.5-.27,2.99-.4,4.49-.19,2.12-.37,4.24-.56,6.36"/>
    <path class="cls-2" d="M100.51,49.81c.05,1.71.11,3.42.16,5.13.37,11.69.73,23.37,1.1,35.06.34,10.99.69,21.99,1.03,32.98.02.5.03.99.05,1.49"/>
    <path class="cls-2" d="M104.41,51.12c-.31,1.24-.6,2.49-.84,3.74-1.37,6.67-1.91,13.51-1.61,20.3"/>
    <path class="cls-2" d="M596.13,42.71c-3.62,11.84-4.67,24.46-3.04,36.73"/>
    <path class="cls-2" d="M596.32,41.36v22.53"/>
    <path class="cls-2" d="M350.74,1020.17c0,.18-.33.08-.28-.09.04-.17.25-.23.43-.25,8.67-1.14,17.42.72,26.13,1.6,1.55.15,3.22.26,4.57-.53"/>
    <path class="cls-2" d="M327.4,1022.17c0-.16-.31-.04-.25.12.04.07.1.12.19.14.08.03.17.03.26.03,7.82-.26,15.62-1.15,23.29-2.64,2.71-.53,5.41-1.13,8.08-1.81,1.9-.48,3.79-1,5.66-1.56"/>
    <path class="cls-2" d="M298.2,1018.57c-.07.94,1.18,1.33,2.13,1.39,9.64.54,19.32.16,28.89-1.12"/>
    <path class="cls-2" d="M264.23,1025.56c2.2-.61,4.42-1.2,6.62-1.8.24-.06.47-.13.71-.19"/>
    <polyline class="cls-2" points="92.28 55.16 100.67 54.94 103.57 54.86 596.32 41.82 613.88 41.36"/>
  </g>
</svg>