<?xml version="1.0" encoding="UTF-8"?>
<svg id="Layer_1" xmlns="http://www.w3.org/2000/svg" viewBox="0 0 616 802">
  <defs>
    <style>
      .cls-1 {
        fill: #58595b;
      }

      .cls-2 {
        fill: none;
        stroke: #231f20;
        stroke-miterlimit: 10;
        stroke-width: 3px;
      }
    </style>
  </defs>
  <g>
    <path class="cls-1" d="M43.27,715.99c0-3.28.01-6.57.04-9.85,0-.82.01-1.63.02-2.44.17-2.23.33-4.46.49-6.69.12-1.7.25-3.4.37-5.1h0c.37-.81.45-1.77.19-2.62.59-8.21,1.19-16.42,1.78-24.63-.48,3.21-.93,6.43-1.34,9.65.03-.3.05-.61.09-.92.66-7.03,1.41-14.05,2.24-21.07l.63-.22c-1.14-14.94-1.74-29.92-1.79-44.9.61-13.2,1.23-26.4,1.84-39.6.13-2.74.28-5.58,1.49-8.05h.02c.03.59.06,1.19.09,1.78h.07c.6-12.76,1.21-25.52,1.8-38.28.22-.18.44-.34.66-.47,8.44-5.17,16.97-10.19,25.59-15.05,36.83-20.75,75.27-38.63,114.88-53.4l.12.2c3.33-2.06,6.67-4.11,10.02-6.15l.93,1.52c14.78-7.79,29.65-15.39,44.61-22.8,15.51-7.68,31.12-15.17,46.83-22.44l.29.63c15.56-5.15,30.91-10.93,46.01-17.3.06-.03.12-.05.18-.08,12.81-5.41,25.44-11.26,37.86-17.52.06-.03.13-.07.2-.1,2.07-.95,4.14-1.91,6.21-2.87l.74,1.6c13.84-6.47,27.98-12.31,42.35-17.5,8.63-3.12,17.34-6.01,26.13-8.65-1.35.63-2.7,1.25-4.05,1.88-.1.01-.18.05-.25.11-.37.33-.39,1.18.11,1.48.66.41,1.51.12,2.22-.18,6.83-2.83,13.66-5.67,20.49-8.51,8.66-3.59,17.32-7.18,25.98-10.78,13.58-5.63,27.16-11.27,40.74-16.91,8.64-3.58,17.28-7.17,25.92-10.76,8.56-3.13,17.18-6.12,25.84-8.96,1.22-.4,2.45-.8,3.67-1.2h.04c-2.5,10.33-4.36,20.82-5.54,31.38v.07c-.98,8.6-1.51,17.25-1.59,25.9.1-1.17.18-2.35.27-3.53l1.09.08c-.02.76-.05,1.51-.07,2.27l2.38.08c-.04,20.69.08,41.38.35,62.07l2.46.39c-2.87,14.57-3.35,29.64-3.78,44.55-2.89,100.38-4.34,200.79-4.34,301.2h2.31c.8,5.59,1.6,11.17,2.41,16.76-182.99,9.79-366.49,9.94-549.5.45h-1c-.29-18.62.01-37.26.91-55.87.25-5.37.55-10.75.91-16.12.03,3.02.09,6.04.16,9.05.06,2.81.13,5.61.22,8.42Z"/>
    <path class="cls-1" d="M560.79,271.37s0-.05,0-.07c0-.01,0-.03,0-.04.21-2.91.37-5.82.49-8.73.29-3.01.53-6.03.75-9.05-.55-.24-1.16-.11-1.65.22-.24-1.78-.48-3.56-.71-5.34h-.3c.36-9.15.71-18.29,1.07-27.43.09-2.28.18-4.57.27-6.85-.98.91-1.47,2.24-1.47,3.57h-1.64c-.04-13.41-.52-26.85-1.43-40.25h-.3c.71-16.91,1.42-33.8,2.13-50.7l-1.99-.11c.23-3.97.45-7.93.67-11.9h-.23c-.5,4.12-1,8.26-1.5,12.4l-.54,11.64h-.29c-.31-24.03.78-48.06,3.26-71.95h.13c.01-.15.02-.32.03-.48.39-6.7.77-13.41,1.16-20.11-.55,5.86-1.1,11.71-1.65,17.56-.52,5.44-1.03,10.87-1.54,16.3l-1.2-.05c.72-17.25,1.44-34.51,2.17-51.76l2.68.11c1.88.95,3.84,1.73,5.85,2.35h12.98l.12-1.15c3.34.36,6.72.33,10.04-.09l1.84,1.24v9.72c.17-.81.35-1.61.54-2.41-.11,8.22.03,16.44.42,24.65l-.96.04v23.26c.89,10.02,1.4,20.08,1.53,30.14h.12c.47,7.12.81,14.25,1.02,21.38.33,11.23.34,22.47.02,33.7l-1.02,21.81c-.13,2.77-.26,5.55-.39,8.33l.86.04c-.27,10.23-.54,20.45-.81,30.68v20.52c-2.64,3.07-3.38,8.42-3.15,12.83.01.26.03.51.05.77.33,5.81,1.06,11.6,2.17,17.31l-.09.02c-2.78,1.11-5.55,2.22-8.32,3.35-7.99,3.24-15.94,6.57-23.86,9.97,1.21-8.45,2.1-16.93,2.67-25.44Z"/>
  </g>
  <g>
    <path class="cls-2" d="M39.32,524.04h2.67"/>
    <path class="cls-2" d="M49.92,519.88c.52-.23,1.04-.46,1.56-.7,1.04-.46,2.08-.93,3.12-1.39,4.78-2.14,9.55-4.27,14.33-6.4,2.87-1.29,5.75-2.57,8.62-3.86,34.38-15.36,68.76-30.73,103.14-46.09"/>
    <path class="cls-2" d="M50.02,528.18c-1.98-.93-.53-3.66,1.28-5.13.22-.18.44-.34.66-.47,8.44-5.17,16.97-10.19,25.59-15.05,36.83-20.75,75.27-38.63,114.88-53.4"/>
    <path class="cls-2" d="M51.55,512.45c44.45-24.52,90.73-45.74,138.32-63.4"/>
    <path class="cls-2" d="M68.52,510.47c39.46-22.35,79.99-42.81,121.4-61.3,12.96-5.79,26.01-11.38,39.13-16.78,6.04-2.48,12.09-4.92,18.16-7.32"/>
    <path class="cls-2" d="M187.35,457.54c1.73-1.07,3.46-2.14,5.2-3.21,3.33-2.06,6.67-4.11,10.02-6.15,8.76-5.37,17.57-10.67,26.48-15.79,25.84-14.86,52.45-28.2,80.84-37.06"/>
    <path class="cls-2" d="M203.5,449.7c14.78-7.79,29.65-15.39,44.61-22.8,15.51-7.68,31.12-15.17,46.83-22.44,5.26-2.44,10.53-4.86,15.81-7.24,9.92-4.5,19.88-8.92,29.88-13.25"/>
    <path class="cls-2" d="M379.48,370.09c2.07-.95,4.14-1.91,6.21-2.87.51-.23,1.03-.47,1.54-.71"/>
    <path class="cls-2" d="M341.42,387.71c12.62-5.84,25.24-11.68,37.86-17.52"/>
    <path class="cls-2" d="M225.9,441.18c38.45-17.79,76.9-35.59,115.34-53.39"/>
    <path class="cls-2" d="M295.23,405.09c15.56-5.15,30.91-10.93,46.01-17.3.06-.03.12-.05.18-.08,12.81-5.41,25.44-11.26,37.86-17.52.06-.03.13-.07.2-.1,6.27-3.17,12.48-6.44,18.64-9.82"/>
    <path class="cls-2" d="M355.02,384.82c10.28-5.69,20.76-11.03,31.41-16,13.84-6.47,27.98-12.31,42.35-17.5,8.63-3.12,17.34-6.01,26.13-8.65,6.14-1.86,12.32-3.6,18.52-5.22,4.25-1.1,8.51-2.15,12.78-3.15"/>
    <path class="cls-2" d="M338.94,396.54c37.22-17.29,74.45-34.58,111.67-51.88.08-.03.17-.07.25-.11,1.35-.63,2.7-1.25,4.05-1.88,17.59-8.17,35.19-16.35,52.78-24.52"/>
    <path class="cls-2" d="M413.42,358.91c5.1-2.57,10.22-5.1,15.36-7.59,25.71-12.43,51.95-23.75,78.63-33.91,6.54-2.5,13.11-4.93,19.7-7.29"/>
    <path class="cls-2" d="M451.06,344.56c-.07-.02-.14-.02-.2-.01-.1.01-.18.05-.25.11-.37.33-.39,1.18.11,1.48.66.41,1.51.12,2.22-.18,6.83-2.83,13.66-5.67,20.49-8.51,8.66-3.59,17.32-7.18,25.98-10.78,13.58-5.63,27.16-11.27,40.74-16.91,8.64-3.58,17.28-7.17,25.92-10.76,2.23-.92,4.45-1.85,6.68-2.77"/>
    <path class="cls-2" d="M475.42,341.55c21.34-11.06,42.92-21.67,64.73-31.79,4.1-1.9,8.21-3.79,12.32-5.65,4.41-2.01,8.82-3.99,13.25-5.95,2.35-1.05,4.72-2.09,7.08-3.13"/>
    <path class="cls-2" d="M491.24,330.53c2.71-1.3,5.44-2.59,8.17-3.86,17.42-8.14,35.12-15.66,53.06-22.56,4.52-1.75,9.05-3.45,13.6-5.11,8.56-3.13,17.18-6.12,25.84-8.96,1.22-.4,2.45-.8,3.67-1.2"/>
    <path class="cls-2" d="M540.32,304.63c5.69-2.55,11.41-5.06,17.14-7.53.22-.1.44-.19.66-.29,7.92-3.4,15.87-6.73,23.86-9.97,2.77-1.13,5.54-2.24,8.32-3.35"/>
    <path class="cls-2" d="M61.82,507.69c-3.4,1.65-6.79,3.29-10.19,4.93-1.84.9-3.68,1.79-5.52,2.68-2.28,1.1-4.55,2.21-6.83,3.31"/>
    <path class="cls-2" d="M53.91,511.85c-2.72,1.23-5.35,2.65-7.87,4.26-4.8,3.03-9.2,6.71-13.04,10.9"/>
    <path class="cls-2" d="M66.72,505.79c-5.98,3.91-11.97,7.83-17.96,11.74"/>
    <path class="cls-2" d="M63.41,512.38c-3.7.94-7.31,2.19-10.8,3.73-2.35,1.03-4.65,2.19-6.87,3.47-2.26,1.3-4.45,2.72-6.56,4.26"/>
    <path class="cls-2" d="M584.58,291.14c-4.03.32-8,1.32-11.71,2.92-2.53,1.1-4.93,2.47-7.15,4.1-.32.22-.63.46-.94.7"/>
    <path class="cls-2" d="M588.65,285.31c-2.25.34-4.45.97-6.55,1.84-3.5,1.45-6.72,3.59-9.4,6.27"/>
    <path class="cls-2" d="M560.79,271.26c-.04-.75-.09-1.5-.17-2.25-.02-.32-.05-.64-.08-.96"/>
    <path class="cls-2" d="M559.81,288.12c.98-5.54,1.31-11.2.98-16.82"/>
    <path class="cls-2" d="M557.48,291.95c.08-.5.17-1.01.24-1.51,1.16-7.12,2.13-14.26,2.9-21.43.08-.66.15-1.33.22-1.99.16-1.5.31-2.99.44-4.49.29-3.01.53-6.03.75-9.05-.55-.24-1.16-.11-1.65.22-.05.03-.09.07-.14.11-.59.45-.95,1.21-.73,1.93"/>
    <path class="cls-2" d="M560.79,271.26c.04-1.41.05-2.82.05-4.24,0-1.3-.02-2.61-.06-3.91-.09-3.1-.27-6.21-.54-9.3-.16-1.82-.35-3.64-.57-5.45.23,1.78.47,3.56.71,5.34.16,1.21.32,2.43.48,3.64"/>
    <path class="cls-2" d="M560.53,277.36c.13-1.99.21-3.99.26-5.99"/>
    <path class="cls-2" d="M557.89,298.51c.08-.57.16-1.13.23-1.7,1.21-8.45,2.1-16.93,2.67-25.44,0-.02,0-.05,0-.07,0-.01,0-.03,0-.04.21-2.91.37-5.82.49-8.73.08-1.58.13-3.15.18-4.73-.23,1.77-.46,3.55-.68,5.31-.04.31-.08.61-.12.92"/>
    <path class="cls-2" d="M557.45,297.35c0-.08,0-.17,0-.25.09-2.22.17-4.44.26-6.66.55-14.03,1.1-28.06,1.65-42.09.36-9.14.71-18.28,1.07-27.42.09-2.28.18-4.57.27-6.85-.98.91-1.47,2.24-1.47,3.57,0,1.19.4,2.4,1.2,3.28.08.09.17.18.26.27"/>
    <path class="cls-2" d="M556.65,254.7c.68-12.33,1-24.69.95-37.04-.04-13.42-.52-26.86-1.43-40.26"/>
    <path class="cls-2" d="M556.38,224.06c-.43-4.44-.87-8.89-1.3-13.33"/>
    <path class="cls-2" d="M557.99,177.37v-14.67"/>
    <path class="cls-2" d="M557.81,161.19c-1.75,1.76-1.66,5,.18,6.68.02.03.05.06.08.08"/>
    <path class="cls-2" d="M555.42,188.04c.15-3.55.3-7.1.45-10.65.71-16.9,1.42-33.79,2.13-50.69"/>
    <path class="cls-2" d="M554.12,138.72c-.31-24.02.78-48.05,3.26-71.94"/>
    <path class="cls-2" d="M556.8,62.67c.09.36.17.72.25,1.08.19.84.35,1.69.49,2.55.75,4.53.88,9.17.36,13.73"/>
    <path class="cls-2" d="M556.45,114.68c-.5,4.13-1,8.27-1.5,12.41-.14,1.22-.29,2.45-.44,3.68"/>
    <path class="cls-2" d="M559.46,65.38c-.93,16.44-1.85,32.87-2.78,49.31-.22,3.97-.44,7.93-.67,11.9-.45,8.03-.91,16.05-1.36,24.08"/>
    <path class="cls-2" d="M556.6,92.03c-.55,11.69-1.1,23.37-1.65,35.06l-.54,11.64c-.32,6.65-.63,13.3-.94,19.95"/>
    <path class="cls-2" d="M554.02,42.7c-.22,6.04-.44,12.07-.66,18.1l-1.05,28.56"/>
    <path class="cls-2" d="M555.57,42.74c-.85,6-1.59,12.02-2.21,18.06-.77,7.29-1.37,14.6-1.8,21.92"/>
    <path class="cls-2" d="M556.49,28.03c0,.07-.01.14-.01.21-.73,17.25-1.45,34.51-2.17,51.76-.15,3.57-.3,7.13-.45,10.7"/>
    <path class="cls-2" d="M558.78,45.32c-.03.29-.05.58-.08.87-.55,5.86-1.1,11.71-1.65,17.56-.52,5.44-1.03,10.87-1.54,16.3"/>
    <path class="cls-2" d="M559.36,34.71c-.22,3.83-.44,7.65-.66,11.48-.39,6.7-.77,13.41-1.16,20.11-.01.16-.02.33-.03.49-.43,7.52-.87,15.03-1.3,22.55"/>
    <path class="cls-2" d="M559.32,30.7h18.67"/>
    <path class="cls-2" d="M564.71,25.11c7.53,1.45,15.06,2.9,22.6,4.35"/>
    <path class="cls-2" d="M562.1,23.67c8.2,2.43,16.67,3.97,25.21,4.57"/>
    <path class="cls-2" d="M559.16,28.35c1.88.95,3.84,1.73,5.85,2.35,5.89,1.82,12.21,2.24,18.28,1.15"/>
    <path class="cls-2" d="M567.22,26.97c3.5,1.33,7.17,2.2,10.89,2.58,3.34.36,6.72.33,10.04-.09.61-.08,1.21-.17,1.81-.27"/>
    <path class="cls-2" d="M556.66,292.04c-.45.44-.89.89-1.34,1.33"/>
    <path class="cls-2" d="M599.38,24.06l-2.61,6.69"/>
    <path class="cls-2" d="M595.44,25.37c-.21,10.72-1.11,21.42-2.7,32.01"/>
    <path class="cls-2" d="M592.11,31.88c-.13.47-.27.95-.39,1.42-.43,1.56-.83,3.13-1.19,4.71-.19.8-.37,1.6-.54,2.41-1.47,6.89-2.38,13.91-2.72,20.95"/>
    <path class="cls-2" d="M589.99,30.7v28"/>
    <path class="cls-2" d="M592.37,38.52c.86-1.66.54-3.8-.65-5.22-.3-.37-.66-.69-1.08-.94-.05,1.89-.09,3.77-.11,5.65-.11,8.22.03,16.44.42,24.65.35,7.58.92,15.16,1.7,22.71"/>
    <path class="cls-2" d="M592.41,68.08c1.42,8.43,2.85,16.86,4.28,25.28"/>
    <path class="cls-2" d="M589.99,62.7v54.67"/>
    <path class="cls-2" d="M589.01,76.15c.37,3.27.7,6.54.98,9.81.89,10.02,1.4,20.08,1.53,30.14.1,7.09.01,14.18-.26,21.27"/>
    <path class="cls-2" d="M592.66,109.37v45.33"/>
    <path class="cls-2" d="M591.64,116.1c.47,7.12.81,14.25,1.02,21.38.33,11.23.34,22.47.02,33.7-.2,7.28-.54,14.55-1.02,21.81-.09,1.43-.19,2.86-.29,4.29"/>
    <path class="cls-2" d="M593.21,160c-.17,3.73-.35,7.45-.53,11.18l-1.02,21.81c-.13,2.77-.26,5.55-.39,8.33-.38,8.02-.75,16.04-1.13,24.06"/>
    <path class="cls-2" d="M592.13,201.36c-.27,10.23-.54,20.45-.81,30.68-.13,4.88-.26,9.77-.39,14.65"/>
    <path class="cls-2" d="M591.32,232.04v36"/>
    <path class="cls-2" d="M591.45,253.43c-.04.1-.09.2-.13.3-1.73,3.93-2.78,8.15-3.1,12.43-.21,2.85-.11,5.73.33,8.56"/>
    <path class="cls-2" d="M595.56,250.14c-1.77.29-3.16,1.16-4.24,2.42-2.64,3.07-3.38,8.42-3.15,12.83.01.26.03.51.05.77.33,5.81,1.06,11.6,2.17,17.31.38,1.94.8,3.86,1.26,5.78"/>
    <path class="cls-2" d="M47.69,525.35c.35,7.1.69,14.21,1.03,21.31.21,4.3.42,8.59.62,12.89.03.59.06,1.19.09,1.78.19,4.01.39,8.03.58,12.04"/>
    <path class="cls-2" d="M54.59,517.76c.53-.91-.94-1.82-1.86-1.38-.06.02-.11.05-.16.09-.83.58-1.02,1.68-1.09,2.71,0,.11-.01.22-.01.32-.06,1.18-.11,2.37-.17,3.55-.59,12.76-1.2,25.52-1.8,38.28"/>
    <path class="cls-2" d="M50.26,532.07c-.57,4.86-1.09,9.72-1.54,14.59-1.9,20.12-2.81,40.34-2.73,60.54.05,14.98.65,29.96,1.79,44.9"/>
    <path class="cls-2" d="M49.32,559.55c-1.21,2.47-1.36,5.31-1.49,8.05-.61,13.2-1.23,26.4-1.84,39.6-.49,10.5-.97,20.99-1.46,31.49"/>
    <path class="cls-2" d="M44.52,610.68c-1.37,8.37-1.74,16.9-1.12,25.35"/>
    <path class="cls-2" d="M44.66,673.37v-29.73c-.81,10.4-1.43,20.82-1.88,31.24-.37,8.79-.62,17.59-.74,26.39-.05,4.46-.07,8.91-.06,13.37.01,9.36.18,18.74.49,28.1"/>
    <path class="cls-2" d="M47.2,663.96c2-3.53,1.99-8.12-.05-11.64-.83,7.02-1.58,14.04-2.24,21.07-.04.31-.06.62-.09.92-.43,4.57-.82,9.13-1.17,13.7-.03.3-.05.59-.07.89-.11,1.39-.22,2.79-.31,4.18-.14,1.82-.26,3.63-.38,5.44-.36,5.37-.66,10.75-.91,16.12-.9,18.61-1.2,37.25-.91,55.88,0,.51.01,1.02.02,1.53"/>
    <path class="cls-2" d="M47.16,692.28c.9-.07-.85-.49-.94.42-.38,3.76-.43,7.56-.17,11.33"/>
    <path class="cls-2" d="M46.27,513.39c-.05.64-.11,1.27-.16,1.91-.03.27-.05.54-.07.81-.1,1.16-.2,2.31-.3,3.47-1.22,14.38-2.45,28.75-3.67,43.13"/>
    <path class="cls-2" d="M44.01,533.32c-1.99,23.96-3.15,48-3.46,72.05"/>
    <path class="cls-2" d="M45.66,586.67c-2.84,28.37-4.66,56.85-5.44,85.35"/>
    <path class="cls-2" d="M43.32,642.7c.11-1.88.22-3.75.32-5.63-.5,12.6-.78,25.2-.86,37.81-.04,5.79-.03,11.58.03,17.36.01,2.1.04,4.19.08,6.28.03,3.02.09,6.04.16,9.05.06,2.81.13,5.61.22,8.42.02.92.05,1.84.08,2.76"/>
    <path class="cls-2" d="M44.55,694.66c-.29.77-.54,1.55-.73,2.35-.18.65-.32,1.31-.43,1.98-.35,2.1-.42,4.25-.18,6.37.02.26.06.52.1.78.02.19.05.37.08.55"/>
    <path class="cls-2" d="M44.19,691.9c.06-.87.13-1.74.19-2.61.59-8.21,1.19-16.42,1.78-24.63-.48,3.21-.93,6.43-1.34,9.65-.77,5.97-1.44,11.94-2.01,17.93-.28,3.01-.54,6.02-.77,9.03-.92,12.01-1.41,24.06-1.5,36.1"/>
    <path class="cls-2" d="M42.34,717.39c.24-3.27.48-6.54.71-9.82.06-.73.11-1.47.16-2.21.04-.55.08-1.1.12-1.66.17-2.23.33-4.46.49-6.69.12-1.7.25-3.4.37-5.1"/>
    <path class="cls-2" d="M43.19,693.14s.06-.04.08-.06c.08-.07.16-.13.23-.2.29-.28.52-.61.69-.97h0c.37-.81.45-1.77.19-2.62-.14-.48-.38-.92-.73-1.28-.01-.02-.03-.04-.05-.06-.01.32-.02.63-.02.95-.03,1.33-.06,2.66-.08,3.98-.05,2.04-.08,4.08-.11,6.11-.03,1.57-.04,3.14-.06,4.71-.01.81-.02,1.62-.02,2.44-.03,3.28-.04,6.57-.04,9.85,0,4.91.03,9.8.1,14.71"/>
    <path class="cls-2" d="M596.19,286.71c.01.6.03,1.21.03,1.81.28,15.78-.47,31.57-2.25,47.25-.15,1.4-.32,2.8-.49,4.2"/>
    <path class="cls-2" d="M590.08,320.29c-.98,8.6-1.51,17.25-1.59,25.9-.02,1.26-.03,2.51-.02,3.76"/>
    <path class="cls-2" d="M595.7,288.53c-.03.11-.05.21-.08.32-2.5,10.32-4.36,20.81-5.54,31.37"/>
    <path class="cls-2" d="M594.46,293.49c.39-1.55.78-3.1,1.16-4.64"/>
    <path class="cls-2" d="M591.83,295.91c-2.59,16.8-3.97,33.79-4.13,50.8"/>
    <path class="cls-2" d="M590.26,316.05c-.06,1.39-.11,2.78-.18,4.17v.07c-.34,7.46-.78,14.92-1.32,22.37-.09,1.18-.17,2.36-.27,3.53-.09,1.24-.19,2.48-.29,3.72"/>
    <path class="cls-2" d="M589.85,342.74c-.02.76-.05,1.51-.07,2.27-.05,1.56-.1,3.12-.15,4.67"/>
    <path class="cls-2" d="M594.02,332.03c-.02,1.25-.03,2.49-.05,3.74-.14,11.55-.28,23.11-.42,34.66-.47-8.45-.93-16.9-1.39-25.34-.04,20.69.08,41.38.35,62.07"/>
    <path class="cls-2" d="M597.98,395.43c-1.23,3.99-2.21,8.03-3.01,12.12-2.87,14.57-3.35,29.64-3.78,44.55-2.89,100.38-4.34,200.79-4.34,301.2v8.02"/>
    <path class="cls-2" d="M42.07,770.51c183.01,9.49,366.51,9.34,549.5-.45h.05c.36-.02.71-.04,1.07-.06"/>
    <path class="cls-2" d="M591.72,771.04c-.06-.33-.1-.65-.15-.98-.81-5.59-1.61-11.17-2.41-16.76"/>
    <path class="cls-2" d="M591.72,771.04c.21,2.04.51,4.07.87,6.08-.29-2.03-.59-4.05-.87-6.08Z"/>
    <path class="cls-2" d="M591.37,756.04c-.29,4.67-.21,9.37.25,14.02.02.33.06.66.1.98"/>
  </g>
</svg>